HIERARCHY
ROOT Hips
{
 OFFSET 0.000000 0.000000 0.000000
 CHANNELS 6 Xposition Yposition Zposition Yrotation Xrotation Zrotation
 JOINT Chest
 {
  OFFSET 0.000000 9.585900 0.002600
  CHANNELS 3 Yrotation Xrotation Zrotation
  JOINT Chest2
  {
   OFFSET 0.000000 9.601200 -0.005300
   CHANNELS 3 Yrotation Xrotation Zrotation
   JOINT Chest3
   {
    OFFSET 0.000000 9.561800 0.000000
    CHANNELS 3 Yrotation Xrotation Zrotation
    JOINT Chest4
    {
     OFFSET 0.000000 9.552100 0.000000
     CHANNELS 3 Yrotation Xrotation Zrotation
     JOINT Neck
     {
      OFFSET 0.000000 14.453000 0.000000
      CHANNELS 3 Yrotation Xrotation Zrotation
      JOINT Head
      {
       OFFSET 0.000000 8.936500 -0.011300
       CHANNELS 3 Yrotation Xrotation Zrotation
       End Site
       {
        OFFSET 0.000000 17.073600 -0.006000
       }
      }
     }
     JOINT RightCollar
     {
      OFFSET -2.921100 9.558500 0.000000
      CHANNELS 3 Yrotation Xrotation Zrotation
      JOINT RightShoulder
      {
       OFFSET -13.519700 0.000000 0.000000
       CHANNELS 3 Yrotation Xrotation Zrotation
       JOINT RightElbow
       {
        OFFSET 0.000000 -29.696600 0.000000
        CHANNELS 3 Yrotation Xrotation Zrotation
        JOINT RightWrist
        {
         OFFSET 0.000000 -24.004700 0.000000
         CHANNELS 3 Yrotation Xrotation Zrotation
         End Site
         {
          OFFSET 0.000000 -17.728500 0.000000
         }
        }
       }
      }
     }
     JOINT LeftCollar
     {
      OFFSET 2.921100 9.558500 0.000000
      CHANNELS 3 Yrotation Xrotation Zrotation
      JOINT LeftShoulder
      {
       OFFSET 13.519700 0.000000 0.000000
       CHANNELS 3 Yrotation Xrotation Zrotation
       JOINT LeftElbow
       {
        OFFSET 0.000000 -29.696600 0.000000
        CHANNELS 3 Yrotation Xrotation Zrotation
        JOINT LeftWrist
        {
         OFFSET 0.000000 -24.004700 0.000000
         CHANNELS 3 Yrotation Xrotation Zrotation
         End Site
         {
          OFFSET 0.000000 -17.728500 0.000000
         }
        }
       }
      }
     }
    }
   }
  }
 }
 JOINT RightHip
 {
  OFFSET -7.771700 -0.012900 -0.001300
  CHANNELS 3 Yrotation Xrotation Zrotation
  JOINT RightKnee
  {
   OFFSET 0.000000 -40.869800 0.001200
   CHANNELS 3 Yrotation Xrotation Zrotation
   JOINT RightAnkle
   {
    OFFSET 0.000000 -39.717900 0.002100
    CHANNELS 3 Yrotation Xrotation Zrotation
    JOINT RightToe
    {
     OFFSET 0.000000 -4.965400 11.033500
     CHANNELS 3 Yrotation Xrotation Zrotation
     End Site
     {
      OFFSET 0.000000 -1.423100 5.872300
     }
    }
   }
  }
 }
 JOINT LeftHip
 {
  OFFSET 7.771700 -0.012900 -0.001300
  CHANNELS 3 Yrotation Xrotation Zrotation
  JOINT LeftKnee
  {
   OFFSET 0.000000 -40.869800 0.001200
   CHANNELS 3 Yrotation Xrotation Zrotation
   JOINT LeftAnkle
   {
    OFFSET 0.000000 -39.717900 0.002100
    CHANNELS 3 Yrotation Xrotation Zrotation
    JOINT LeftToe
    {
     OFFSET 0.000000 -4.965400 11.033500
     CHANNELS 3 Yrotation Xrotation Zrotation
     End Site
     {
      OFFSET 0.000000 -1.423100 5.872300
     }
    }
   }
  }
 }
}
MOTION
Frames: 11
Frame Time: 0.008333
0.000000 85.388000 0.000000 0.000000 -5.767877 0.000000 0.000000 11.653817 0.000000 0.000000 -5.885947 0.000000 0.000000 -0.000000 0.000000 0.000000 -0.000000 0.000000 0.000000 12.528835 0.000000 0.000000 0.711642 0.000000 0.000000 -0.000000 0.000000 0.000000 0.000000 -90.000000 0.000000 -2.309062 0.000000 0.000000 2.309062 0.000000 0.000000 -0.000000 0.000000 0.000000 -0.000000 90.000000 0.000000 -2.309062 0.000000 0.000000 2.309062 0.000000 0.000000 8.520406 0.000000 0.000000 1.905762 0.000000 -0.000000 -4.658285 0.000000 0.000000 -0.000000 0.000000 0.000000 8.520406 0.000000 0.000000 1.905762 0.000000 -0.000000 -4.658285 0.000000 0.000000 -0.000000 0.000000
-119.620458 46.601081 -38.584208 173.337058 -32.221672 -2.548173 1.236965 19.877073 1.953165 0.089604 2.461117 0.224719 0.152505 4.041432 0.371296 0.849272 17.122317 1.690164 -0.192631 16.052170 -0.883175 -0.043146 -5.982990 -1.573623 -0.587409 -0.326304 -1.968889 5.513571 -7.847104 -16.797200 -47.447132 -58.596483 98.580098 -0.717197 4.097931 -15.726906 -0.522071 -0.202479 3.068304 -4.271614 -4.454740 12.928431 92.946471 -77.739478 -128.042191 -4.972749 9.513483 4.015864 -5.556084 -53.724800 -3.058878 -163.399909 76.947214 -152.870801 -9.655058 -16.651621 -8.147831 0.011071 -0.171019 -0.024916 0.232730 -56.972196 13.298795 -116.155488 83.110239 -119.949728 7.035874 -6.171064 4.710282 0.049431 0.153098 -0.002147
-119.618813 46.600998 -38.581720 173.321839 -32.213411 -2.554659 1.245395 19.870940 1.961807 0.090517 2.460709 0.225466 0.153644 4.040823 0.372550 0.855546 17.120735 1.695947 -0.204893 16.041225 -0.878348 -0.109002 -6.039215 -1.527052 -0.598800 -0.333457 -1.960942 5.516590 -7.836418 -16.798070 -47.413144 -58.591857 98.555220 -0.709210 4.110884 -15.723942 -0.551162 -0.223190 3.075459 -4.272416 -4.447905 12.956151 92.753506 -77.719051 -127.851757 -4.951067 9.507175 4.007571 -5.564772 -53.731661 -3.034716 -163.416690 76.962102 -152.877827 -9.675207 -16.643787 -8.154430 0.012189 -0.168718 -0.019453 0.219672 -56.981726 13.321427 -116.201953 83.115439 -119.989135 7.042895 -6.175227 4.706055 0.052809 0.151119 0.004934
-119.617029 46.601077 -38.579130 173.305229 -32.204979 -2.561689 1.257247 19.864606 1.975014 0.084649 2.462424 0.227367 0.161415 4.036632 0.372655 0.861329 17.117221 1.715010 -0.222212 16.030600 -0.885932 -0.142704 -6.066058 -1.505243 -0.614874 -0.339072 -1.967530 5.522266 -7.825819 -16.802945 -47.388081 -58.590434 98.529904 -0.700752 4.128302 -15.712527 -0.571318 -0.230821 3.059262 -4.265877 -4.442571 12.968442 92.376097 -77.731791 -127.529312 -4.937671 9.457507 4.030068 -5.571290 -53.737926 -3.009664 -163.447256 76.977038 -152.903094 -9.673940 -16.638468 -8.162147 0.014142 -0.162679 -0.014644 0.203685 -56.990415 13.340679 -116.223720 83.117530 -119.997786 7.065813 -6.180956 4.693940 0.023190 0.153534 0.005270
-119.617420 46.601660 -38.577564 173.293277 -32.201028 -2.557758 1.250192 19.867255 1.972860 0.099432 2.456761 0.226279 0.150189 4.038839 0.378088 0.875083 17.112372 1.720167 -0.241832 16.018839 -0.878995 -0.175753 -6.099625 -1.484132 -0.625967 -0.342115 -1.971588 5.522786 -7.821368 -16.805275 -47.377567 -58.594243 98.516691 -0.696430 4.151057 -15.706440 -0.583020 -0.233927 3.050102 -4.260463 -4.439837 12.971877 92.152481 -77.735527 -127.340348 -4.921756 9.443009 4.021191 -5.570162 -53.741258 -3.002372 -163.469245 76.991344 -152.919071 -9.702883 -16.637883 -8.164477 0.014255 -0.158285 -0.011512 0.204441 -56.994338 13.337099 -116.257671 83.114345 -120.016836 7.052880 -6.182948 4.686427 0.041668 0.152764 0.003567
-119.617578 46.601464 -38.574581 173.277916 -32.186489 -2.554338 1.249120 19.857661 1.972956 0.103792 2.453963 0.227148 0.158111 4.036633 0.377152 0.877622 17.110769 1.730635 -0.256397 16.001571 -0.871263 -0.213569 -6.136180 -1.457859 -0.636537 -0.345246 -1.974967 5.530244 -7.817218 -16.811369 -47.373353 -58.599213 98.502977 -0.690129 4.173759 -15.705650 -0.592888 -0.237311 3.041352 -4.271843 -4.446158 12.991206 91.985879 -77.719287 -127.174250 -4.892963 9.452073 3.994976 -5.564890 -53.757350 -2.994928 -163.507818 77.009005 -152.947736 -9.722765 -16.627663 -8.167977 0.019009 -0.158094 -0.012354 0.204814 -57.009167 13.337464 -116.288296 83.123069 -120.036235 7.041106 -6.180501 4.686966 0.072790 0.151153 -0.001939
-119.617030 46.602437 -38.573249 173.264732 -32.182663 -2.554760 1.248877 19.859728 1.973825 0.101396 2.453304 0.231190 0.167549 4.033057 0.380233 0.881011 17.108842 1.729435 -0.269040 15.982414 -0.855023 -0.224478 -6.146883 -1.457586 -0.660793 -0.362939 -1.946366 5.544564 -7.802421 -16.838773 -47.348040 -58.609866 98.477709 -0.682380 4.194945 -15.704231 -0.630162 -0.273769 3.032499 -4.275729 -4.444432 13.045510 91.498999 -77.679716 -126.705650 -4.873096 9.431030 4.003941 -5.562992 -53.761645 -2.982689 -163.517464 77.015424 -152.955291 -9.721358 -16.622072 -8.166112 0.020695 -0.157823 -0.008232 0.188911 -57.012638 13.336628 -116.407207 83.140748 -120.146136 7.093074 -6.185901 4.672488 0.031628 0.148167 -0.003437
-119.615132 46.602451 -38.569984 173.235390 -32.165661 -2.555256 1.266576 19.849325 1.983851 0.105043 2.448225 0.231682 0.153634 4.039736 0.381603 0.899818 17.099705 1.731928 -0.296702 15.939933 -0.818234 -0.216250 -6.137593 -1.480707 -0.673990 -0.379518 -1.927635 5.526023 -7.807270 -16.839890 -47.270895 -58.619428 98.429738 -0.668044 4.220592 -15.710373 -0.649604 -0.289030 3.021455 -4.283993 -4.453378 13.081749 91.119447 -77.660011 -126.345185 -4.850429 9.424284 3.999549 -5.560495 -53.779622 -2.952543 -163.524360 77.026988 -152.959561 -9.720186 -16.612335 -8.160809 0.021874 -0.155337 -0.011406 0.177673 -57.029628 13.367873 -116.443715 83.143395 -120.178028 7.091837 -6.191447 4.674457 0.031742 0.150880 -0.012212
-119.614067 46.602967 -38.567470 173.222631 -32.151123 -2.558051 1.271795 19.841332 1.988242 0.103618 2.448780 0.233701 0.159551 4.034982 0.382487 0.904098 17.099631 1.741892 -0.304449 15.930797 -0.822732 -0.322774 -6.277715 -1.357483 -0.685953 -0.398854 -1.921054 5.525772 -7.805461 -16.845358 -47.224706 -58.625374 98.389916 -0.653093 4.251644 -15.718092 -0.675421 -0.301998 3.000088 -4.301731 -4.477902 13.126149 90.878487 -77.631728 -126.078007 -4.824150 9.459506 3.947896 -5.565259 -53.796945 -2.928636 -163.609351 77.044253 -153.048312 -9.738526 -16.598047 -8.147999 0.031619 -0.156994 -0.016677 0.168129 -57.043963 13.385197 -116.472263 83.148165 -120.197847 7.084668 -6.195191 4.666630 0.035905 0.153953 -0.011861
-119.610937 46.604299 -38.565333 173.215438 -32.140410 -2.574386 1.281197 19.832973 2.006500 0.099165 2.452371 0.234664 0.164063 4.030860 0.383602 0.907163 17.098230 1.751238 -0.324043 15.899413 -0.803323 -0.394333 -6.362675 -1.274732 -0.691750 -0.409374 -1.922753 5.515630 -7.816866 -16.841582 -47.123788 -58.668024 98.255393 -0.667141 4.263655 -15.675964 -0.704267 -0.310377 2.974292 -4.310294 -4.501829 13.167683 90.532685 -77.624670 -125.734172 -4.822355 9.479963 3.898705 -5.581449 -53.814844 -2.872595 -163.528491 77.034763 -152.970924 -9.740632 -16.578337 -8.142098 0.047254 -0.168075 -0.008363 0.137188 -57.054061 13.421430 -116.517721 83.155336 -120.232952 7.084221 -6.203061 4.660366 0.037647 0.157792 -0.012438
-119.609189 46.605848 -38.562913 173.204479 -32.126855 -2.578752 1.290943 19.820948 2.013534 0.097354 2.452643 0.232801 0.165261 4.028053 0.384879 0.912923 17.092487 1.758082 -0.366607 15.822953 -0.736027 -0.432701 -6.375514 -1.241394 -0.699324 -0.414880 -1.917609 5.493608 -7.834365 -16.836161 -46.995925 -58.698968 98.108254 -0.665260 4.281233 -15.631901 -0.737898 -0.310155 2.949610 -4.335832 -4.550288 13.227132 90.212698 -77.673230 -125.399904 -4.783276 9.499540 3.826000 -5.570747 -53.835182 -2.847410 -163.529384 77.042503 -152.971379 -9.747649 -16.552680 -8.131590 0.036626 -0.176369 -0.007244 0.121889 -57.065748 13.441190 -116.545740 83.161015 -120.258623 7.091788 -6.207859 4.657058 0.038064 0.156668 -0.010452
